<mxfile host="app.diagrams.net" modified="2021-04-07T15:01:30.462Z" agent="5.0 (Macintosh; Intel Mac OS X 10_15_6) AppleWebKit/605.1.15 (KHTML, like Gecko) Version/14.0.3 Safari/605.1.15" etag="4j2U99djjOQNzwlax2TY" version="14.5.7" type="github">
  <diagram id="Q7SySIOpWKD35Otaov_F" name="Page-1">
    <mxGraphModel dx="1188" dy="688" grid="1" gridSize="10" guides="1" tooltips="1" connect="1" arrows="1" fold="1" page="1" pageScale="1" pageWidth="827" pageHeight="1169" math="0" shadow="0">
      <root>
        <mxCell id="0" />
        <mxCell id="1" parent="0" />
        <mxCell id="4qQd01Akz-wWfVTqaKcg-21" style="edgeStyle=none;rounded=0;orthogonalLoop=1;jettySize=auto;html=1;exitX=0.5;exitY=1;exitDx=0;exitDy=0;entryX=0;entryY=0;entryDx=0;entryDy=0;" parent="1" source="4qQd01Akz-wWfVTqaKcg-1" target="4qQd01Akz-wWfVTqaKcg-15" edge="1">
          <mxGeometry relative="1" as="geometry" />
        </mxCell>
        <mxCell id="4qQd01Akz-wWfVTqaKcg-1" value="sound&lt;br&gt;" style="rounded=1;whiteSpace=wrap;html=1;" parent="1" vertex="1">
          <mxGeometry x="10" y="1550" width="120" height="60" as="geometry" />
        </mxCell>
        <mxCell id="4qQd01Akz-wWfVTqaKcg-19" style="edgeStyle=none;rounded=0;orthogonalLoop=1;jettySize=auto;html=1;exitX=0.5;exitY=1;exitDx=0;exitDy=0;" parent="1" source="4qQd01Akz-wWfVTqaKcg-2" edge="1">
          <mxGeometry relative="1" as="geometry">
            <mxPoint x="260" y="1640" as="targetPoint" />
          </mxGeometry>
        </mxCell>
        <mxCell id="4qQd01Akz-wWfVTqaKcg-2" value="application style&amp;nbsp;" style="rounded=1;whiteSpace=wrap;html=1;" parent="1" vertex="1">
          <mxGeometry x="200" y="1550" width="120" height="60" as="geometry" />
        </mxCell>
        <mxCell id="4qQd01Akz-wWfVTqaKcg-22" style="edgeStyle=none;rounded=0;orthogonalLoop=1;jettySize=auto;html=1;exitX=0.5;exitY=1;exitDx=0;exitDy=0;entryX=1;entryY=0;entryDx=0;entryDy=0;" parent="1" source="4qQd01Akz-wWfVTqaKcg-3" target="4qQd01Akz-wWfVTqaKcg-15" edge="1">
          <mxGeometry relative="1" as="geometry" />
        </mxCell>
        <mxCell id="4qQd01Akz-wWfVTqaKcg-3" value="piece style" style="rounded=1;whiteSpace=wrap;html=1;" parent="1" vertex="1">
          <mxGeometry x="390" y="1550" width="120" height="60" as="geometry" />
        </mxCell>
        <mxCell id="4qQd01Akz-wWfVTqaKcg-9" style="edgeStyle=none;rounded=0;orthogonalLoop=1;jettySize=auto;html=1;exitX=0;exitY=0;exitDx=0;exitDy=0;entryX=0.5;entryY=1;entryDx=0;entryDy=0;" parent="1" source="4qQd01Akz-wWfVTqaKcg-4" target="4qQd01Akz-wWfVTqaKcg-5" edge="1">
          <mxGeometry relative="1" as="geometry" />
        </mxCell>
        <mxCell id="4qQd01Akz-wWfVTqaKcg-10" style="edgeStyle=none;rounded=0;orthogonalLoop=1;jettySize=auto;html=1;exitX=0.5;exitY=0;exitDx=0;exitDy=0;" parent="1" source="4qQd01Akz-wWfVTqaKcg-4" target="4qQd01Akz-wWfVTqaKcg-6" edge="1">
          <mxGeometry relative="1" as="geometry" />
        </mxCell>
        <mxCell id="4qQd01Akz-wWfVTqaKcg-11" style="edgeStyle=none;rounded=0;orthogonalLoop=1;jettySize=auto;html=1;exitX=1;exitY=0;exitDx=0;exitDy=0;entryX=0.5;entryY=1;entryDx=0;entryDy=0;" parent="1" source="4qQd01Akz-wWfVTqaKcg-4" target="4qQd01Akz-wWfVTqaKcg-7" edge="1">
          <mxGeometry relative="1" as="geometry" />
        </mxCell>
        <mxCell id="4qQd01Akz-wWfVTqaKcg-4" value="&lt;br&gt;json interface strategy" style="rounded=1;whiteSpace=wrap;html=1;" parent="1" vertex="1">
          <mxGeometry x="175" y="1930" width="170" height="60" as="geometry" />
        </mxCell>
        <mxCell id="4qQd01Akz-wWfVTqaKcg-16" style="edgeStyle=none;rounded=0;orthogonalLoop=1;jettySize=auto;html=1;exitX=0.5;exitY=0;exitDx=0;exitDy=0;" parent="1" source="4qQd01Akz-wWfVTqaKcg-5" target="4qQd01Akz-wWfVTqaKcg-15" edge="1">
          <mxGeometry relative="1" as="geometry" />
        </mxCell>
        <mxCell id="4qQd01Akz-wWfVTqaKcg-5" value="sound strategy" style="rounded=1;whiteSpace=wrap;html=1;" parent="1" vertex="1">
          <mxGeometry x="10" y="1800" width="120" height="60" as="geometry" />
        </mxCell>
        <mxCell id="4qQd01Akz-wWfVTqaKcg-17" style="edgeStyle=none;rounded=0;orthogonalLoop=1;jettySize=auto;html=1;exitX=0.5;exitY=0;exitDx=0;exitDy=0;" parent="1" source="4qQd01Akz-wWfVTqaKcg-6" edge="1">
          <mxGeometry relative="1" as="geometry">
            <mxPoint x="210" y="1720" as="targetPoint" />
          </mxGeometry>
        </mxCell>
        <mxCell id="4qQd01Akz-wWfVTqaKcg-6" value="application style strategy&amp;nbsp;" style="rounded=1;whiteSpace=wrap;html=1;" parent="1" vertex="1">
          <mxGeometry x="200" y="1800" width="120" height="60" as="geometry" />
        </mxCell>
        <mxCell id="4qQd01Akz-wWfVTqaKcg-18" style="edgeStyle=none;rounded=0;orthogonalLoop=1;jettySize=auto;html=1;exitX=0.5;exitY=0;exitDx=0;exitDy=0;entryX=1;entryY=0.5;entryDx=0;entryDy=0;" parent="1" source="4qQd01Akz-wWfVTqaKcg-7" target="4qQd01Akz-wWfVTqaKcg-15" edge="1">
          <mxGeometry relative="1" as="geometry" />
        </mxCell>
        <mxCell id="4qQd01Akz-wWfVTqaKcg-7" value="piece style strategy" style="rounded=1;whiteSpace=wrap;html=1;" parent="1" vertex="1">
          <mxGeometry x="390" y="1800" width="120" height="60" as="geometry" />
        </mxCell>
        <mxCell id="4qQd01Akz-wWfVTqaKcg-8" style="rounded=0;orthogonalLoop=1;jettySize=auto;html=1;exitX=0.5;exitY=1;exitDx=0;exitDy=0;" parent="1" source="4qQd01Akz-wWfVTqaKcg-5" target="4qQd01Akz-wWfVTqaKcg-5" edge="1">
          <mxGeometry relative="1" as="geometry" />
        </mxCell>
        <mxCell id="4qQd01Akz-wWfVTqaKcg-23" style="edgeStyle=none;rounded=0;orthogonalLoop=1;jettySize=auto;html=1;exitX=1;exitY=0.5;exitDx=0;exitDy=0;" parent="1" source="4qQd01Akz-wWfVTqaKcg-15" edge="1">
          <mxGeometry relative="1" as="geometry">
            <mxPoint x="530" y="1720" as="targetPoint" />
          </mxGeometry>
        </mxCell>
        <mxCell id="4qQd01Akz-wWfVTqaKcg-15" value="medietor" style="rounded=1;whiteSpace=wrap;html=1;" parent="1" vertex="1">
          <mxGeometry x="200" y="1690" width="120" height="60" as="geometry" />
        </mxCell>
        <mxCell id="4qQd01Akz-wWfVTqaKcg-20" style="edgeStyle=none;rounded=0;orthogonalLoop=1;jettySize=auto;html=1;exitX=0.5;exitY=0;exitDx=0;exitDy=0;" parent="1" source="4qQd01Akz-wWfVTqaKcg-2" target="4qQd01Akz-wWfVTqaKcg-2" edge="1">
          <mxGeometry relative="1" as="geometry" />
        </mxCell>
        <mxCell id="4qQd01Akz-wWfVTqaKcg-24" value="application" style="rounded=1;whiteSpace=wrap;html=1;" parent="1" vertex="1">
          <mxGeometry x="520" y="1694" width="120" height="60" as="geometry" />
        </mxCell>
        <mxCell id="VYgA78_L0uJZvJCJjYSU-2" value="TIMER" style="text;html=1;strokeColor=none;fillColor=none;align=center;verticalAlign=middle;whiteSpace=wrap;rounded=0;fontSize=49;" parent="1" vertex="1">
          <mxGeometry x="1187.5" y="25" width="210" height="110" as="geometry" />
        </mxCell>
        <mxCell id="8tYOt1Tcwvkd_dsfKMtM-4" style="edgeStyle=none;rounded=0;orthogonalLoop=1;jettySize=auto;html=1;exitX=0.5;exitY=1;exitDx=0;exitDy=0;fontSize=15;" edge="1" parent="1" source="8tYOt1Tcwvkd_dsfKMtM-3">
          <mxGeometry relative="1" as="geometry">
            <mxPoint x="1293" y="420" as="targetPoint" />
          </mxGeometry>
        </mxCell>
        <mxCell id="8tYOt1Tcwvkd_dsfKMtM-10" style="edgeStyle=none;rounded=0;orthogonalLoop=1;jettySize=auto;html=1;exitX=1;exitY=0.5;exitDx=0;exitDy=0;fontSize=15;" edge="1" parent="1" source="8tYOt1Tcwvkd_dsfKMtM-3">
          <mxGeometry relative="1" as="geometry">
            <mxPoint x="1550" y="245" as="targetPoint" />
          </mxGeometry>
        </mxCell>
        <mxCell id="8tYOt1Tcwvkd_dsfKMtM-27" style="edgeStyle=none;rounded=0;orthogonalLoop=1;jettySize=auto;html=1;fontSize=15;" edge="1" parent="1" source="8tYOt1Tcwvkd_dsfKMtM-3" target="8tYOt1Tcwvkd_dsfKMtM-23">
          <mxGeometry relative="1" as="geometry">
            <mxPoint x="1100" y="251" as="targetPoint" />
          </mxGeometry>
        </mxCell>
        <mxCell id="8tYOt1Tcwvkd_dsfKMtM-3" value="&lt;p style=&quot;margin: 0px ; margin-top: 4px ; text-align: center&quot;&gt;&lt;i&gt;&amp;lt;&amp;lt;Interface&amp;gt;&amp;gt;&lt;/i&gt;&lt;br&gt;&lt;b&gt;Timer&lt;/b&gt;&lt;/p&gt;&lt;hr size=&quot;1&quot;&gt;&lt;p style=&quot;margin: 0px ; margin-left: 4px&quot;&gt;&lt;/p&gt;&lt;p style=&quot;margin: 0px ; margin-left: 4px&quot;&gt;+ getRemaningTime(Player player)&lt;/p&gt;&lt;p style=&quot;margin: 0px ; margin-left: 4px&quot;&gt;+ start ()&lt;/p&gt;&lt;p style=&quot;margin: 0px ; margin-left: 4px&quot;&gt;+ stop ()&lt;/p&gt;&lt;p style=&quot;margin: 0px ; margin-left: 4px&quot;&gt;+ isRunning(): boolean&lt;/p&gt;&lt;p style=&quot;margin: 0px ; margin-left: 4px&quot;&gt;+ switchPlayer(Player player)&lt;/p&gt;&lt;p style=&quot;margin: 0px ; margin-left: 4px&quot;&gt;+ isModifiable(): boolean&lt;/p&gt;&lt;p style=&quot;margin: 0px ; margin-left: 4px&quot;&gt;+ setModificable(boolean modificable)&lt;/p&gt;&lt;p style=&quot;margin: 0px ; margin-left: 4px&quot;&gt;+ setIncrement(int increment)&lt;/p&gt;&lt;p style=&quot;margin: 0px ; margin-left: 4px&quot;&gt;+ getIncrement(): int&lt;/p&gt;&lt;p style=&quot;margin: 0px ; margin-left: 4px&quot;&gt;+ updatePlayerTime(Player player, double second)&lt;/p&gt;&lt;p style=&quot;margin: 0px ; margin-left: 4px&quot;&gt;+ addTimerToPlayer(Player player, double second)&lt;/p&gt;&lt;p style=&quot;margin: 0px ; margin-left: 4px&quot;&gt;+ getPlayersWithoutTime(): Optional&amp;lt;Player&amp;gt;&lt;/p&gt;" style="verticalAlign=top;align=left;overflow=fill;fontSize=12;fontFamily=Helvetica;html=1;" vertex="1" parent="1">
          <mxGeometry x="1135" y="135" width="315" height="220" as="geometry" />
        </mxCell>
        <mxCell id="8tYOt1Tcwvkd_dsfKMtM-9" value="TimerImpl" style="html=1;fontSize=15;" vertex="1" parent="1">
          <mxGeometry x="1507.5" y="220" width="110" height="50" as="geometry" />
        </mxCell>
        <mxCell id="8tYOt1Tcwvkd_dsfKMtM-18" style="edgeStyle=none;rounded=0;orthogonalLoop=1;jettySize=auto;html=1;exitX=0.5;exitY=1;exitDx=0;exitDy=0;fontSize=15;" edge="1" parent="1" source="8tYOt1Tcwvkd_dsfKMtM-11" target="8tYOt1Tcwvkd_dsfKMtM-14">
          <mxGeometry relative="1" as="geometry" />
        </mxCell>
        <mxCell id="8tYOt1Tcwvkd_dsfKMtM-11" value="&lt;p style=&quot;margin: 0px ; margin-top: 4px ; text-align: center&quot;&gt;&lt;i&gt;&amp;lt;&amp;lt;Interface&amp;gt;&amp;gt;&lt;/i&gt;&lt;br&gt;&lt;b&gt;TimerFactory&lt;/b&gt;&lt;/p&gt;&lt;hr size=&quot;1&quot;&gt;&lt;p style=&quot;margin: 0px ; margin-left: 4px&quot;&gt;+ defaultTimer(List&amp;lt;Player&amp;gt; players): Timer&lt;/p&gt;&lt;p style=&quot;margin: 0px ; margin-left: 4px&quot;&gt;+ equalTimer(List&amp;lt;Player&amp;gt; players, double duration): Timer&lt;/p&gt;&lt;p style=&quot;margin: 0px ; margin-left: 4px&quot;&gt;+ incrementTimer(List&amp;lt;Player&amp;gt; players, double duration, int increment): Timer&lt;/p&gt;&lt;p style=&quot;margin: 0px ; margin-left: 4px&quot;&gt;+ fromTimerMap(Map&amp;lt;Player, Double&amp;gt; playersTimer)&lt;/p&gt;&lt;p style=&quot;margin: 0px ; margin-left: 4px&quot;&gt;&lt;br&gt;&lt;/p&gt;" style="verticalAlign=top;align=left;overflow=fill;fontSize=12;fontFamily=Helvetica;html=1;" vertex="1" parent="1">
          <mxGeometry x="1077.5" y="420" width="430" height="110" as="geometry" />
        </mxCell>
        <mxCell id="8tYOt1Tcwvkd_dsfKMtM-12" style="edgeStyle=none;rounded=0;orthogonalLoop=1;jettySize=auto;html=1;exitX=0.5;exitY=1;exitDx=0;exitDy=0;fontSize=15;" edge="1" parent="1" source="8tYOt1Tcwvkd_dsfKMtM-11" target="8tYOt1Tcwvkd_dsfKMtM-11">
          <mxGeometry relative="1" as="geometry" />
        </mxCell>
        <mxCell id="8tYOt1Tcwvkd_dsfKMtM-14" value="TimerFactoryImpl" style="html=1;fontSize=15;" vertex="1" parent="1">
          <mxGeometry x="1217.5" y="580" width="150" height="50" as="geometry" />
        </mxCell>
        <mxCell id="8tYOt1Tcwvkd_dsfKMtM-23" value="TimerThread" style="swimlane;fontStyle=0;childLayout=stackLayout;horizontal=1;startSize=26;fillColor=none;horizontalStack=0;resizeParent=1;resizeParentMax=0;resizeLast=0;collapsible=1;marginBottom=0;fontSize=15;" vertex="1" parent="1">
          <mxGeometry x="680" y="210" width="420" height="70" as="geometry" />
        </mxCell>
        <mxCell id="8tYOt1Tcwvkd_dsfKMtM-24" value="+TimerThread(Timer timer, Runnable callBack, Runnable remainingTimer)&#xa;+ run()" style="text;strokeColor=none;fillColor=none;align=left;verticalAlign=top;spacingLeft=4;spacingRight=4;overflow=hidden;rotatable=0;points=[[0,0.5],[1,0.5]];portConstraint=eastwest;" vertex="1" parent="8tYOt1Tcwvkd_dsfKMtM-23">
          <mxGeometry y="26" width="420" height="44" as="geometry" />
        </mxCell>
        <mxCell id="8tYOt1Tcwvkd_dsfKMtM-29" value="REPLAY" style="text;html=1;strokeColor=none;fillColor=none;align=center;verticalAlign=middle;whiteSpace=wrap;rounded=0;fontSize=49;" vertex="1" parent="1">
          <mxGeometry x="1150" y="820" width="210" height="110" as="geometry" />
        </mxCell>
        <mxCell id="8tYOt1Tcwvkd_dsfKMtM-30" style="edgeStyle=none;rounded=0;orthogonalLoop=1;jettySize=auto;html=1;exitX=0.5;exitY=1;exitDx=0;exitDy=0;fontSize=15;" edge="1" parent="1" source="8tYOt1Tcwvkd_dsfKMtM-11" target="8tYOt1Tcwvkd_dsfKMtM-11">
          <mxGeometry relative="1" as="geometry" />
        </mxCell>
        <mxCell id="8tYOt1Tcwvkd_dsfKMtM-32" value="SETTING&lt;br&gt;" style="text;html=1;strokeColor=none;fillColor=none;align=center;verticalAlign=middle;whiteSpace=wrap;rounded=0;fontSize=49;" vertex="1" parent="1">
          <mxGeometry x="1150" y="1460" width="210" height="110" as="geometry" />
        </mxCell>
        <mxCell id="8tYOt1Tcwvkd_dsfKMtM-47" style="edgeStyle=none;rounded=0;orthogonalLoop=1;jettySize=auto;html=1;fontSize=15;" edge="1" parent="1" source="8tYOt1Tcwvkd_dsfKMtM-33" target="8tYOt1Tcwvkd_dsfKMtM-41">
          <mxGeometry relative="1" as="geometry" />
        </mxCell>
        <mxCell id="8tYOt1Tcwvkd_dsfKMtM-33" value="ReplayData" style="swimlane;fontStyle=1;align=center;verticalAlign=top;childLayout=stackLayout;horizontal=1;startSize=26;horizontalStack=0;resizeParent=1;resizeParentMax=0;resizeLast=0;collapsible=1;marginBottom=0;fontSize=15;" vertex="1" parent="1">
          <mxGeometry x="950" y="930" width="610" height="140" as="geometry" />
        </mxCell>
        <mxCell id="8tYOt1Tcwvkd_dsfKMtM-36" value="+ ReplayData(String matchID, Date date, User whiteUser, User blackUser, List&lt;Board&gt;, GameType gametype)&#xa;+ getMatchID(): String&#xa;+ getDate(): Date&#xa;+ getWhiteUser(): User&#xa;+ getBlackUser(): User&#xa;+ getBoards():List&lt;Board&gt;&#xa;+ getGameType(): GameType" style="text;strokeColor=none;fillColor=none;align=left;verticalAlign=top;spacingLeft=4;spacingRight=4;overflow=hidden;rotatable=0;points=[[0,0.5],[1,0.5]];portConstraint=eastwest;" vertex="1" parent="8tYOt1Tcwvkd_dsfKMtM-33">
          <mxGeometry y="26" width="610" height="114" as="geometry" />
        </mxCell>
        <mxCell id="8tYOt1Tcwvkd_dsfKMtM-39" value="ReplayBuilder" style="html=1;fontSize=15;" vertex="1" parent="1">
          <mxGeometry x="1625" y="988" width="110" height="50" as="geometry" />
        </mxCell>
        <mxCell id="8tYOt1Tcwvkd_dsfKMtM-40" style="edgeStyle=none;rounded=0;orthogonalLoop=1;jettySize=auto;html=1;exitX=1;exitY=0.5;exitDx=0;exitDy=0;entryX=0;entryY=0.5;entryDx=0;entryDy=0;fontSize=15;" edge="1" parent="1" source="8tYOt1Tcwvkd_dsfKMtM-36" target="8tYOt1Tcwvkd_dsfKMtM-39">
          <mxGeometry relative="1" as="geometry" />
        </mxCell>
        <mxCell id="8tYOt1Tcwvkd_dsfKMtM-45" style="edgeStyle=none;rounded=0;orthogonalLoop=1;jettySize=auto;html=1;fontSize=15;" edge="1" parent="1" source="8tYOt1Tcwvkd_dsfKMtM-41" target="8tYOt1Tcwvkd_dsfKMtM-44">
          <mxGeometry relative="1" as="geometry" />
        </mxCell>
        <mxCell id="8tYOt1Tcwvkd_dsfKMtM-41" value="&lt;p style=&quot;margin: 0px ; margin-top: 4px ; text-align: center&quot;&gt;&lt;i&gt;&amp;lt;&amp;lt;Interface&amp;gt;&amp;gt;&lt;/i&gt;&lt;br&gt;&lt;b&gt;SavedReplay&lt;/b&gt;&lt;/p&gt;&lt;hr size=&quot;1&quot;&gt;&lt;p style=&quot;margin: 0px ; margin-left: 4px&quot;&gt;+ save(ReplayData replayData)&lt;/p&gt;&lt;p style=&quot;margin: 0px ; margin-left: 4px&quot;&gt;+ getSaved(String MatchID): ReplayData&lt;/p&gt;&lt;p style=&quot;margin: 0px ; margin-left: 4px&quot;&gt;+ getAllBoards(): Set&amp;lt;ReplayData&amp;gt;&lt;/p&gt;" style="verticalAlign=top;align=left;overflow=fill;fontSize=12;fontFamily=Helvetica;html=1;" vertex="1" parent="1">
          <mxGeometry x="1142.5" y="1110" width="225" height="100" as="geometry" />
        </mxCell>
        <mxCell id="8tYOt1Tcwvkd_dsfKMtM-46" style="edgeStyle=none;rounded=0;orthogonalLoop=1;jettySize=auto;html=1;fontSize=15;" edge="1" parent="1" source="8tYOt1Tcwvkd_dsfKMtM-42" target="8tYOt1Tcwvkd_dsfKMtM-44">
          <mxGeometry relative="1" as="geometry" />
        </mxCell>
        <mxCell id="8tYOt1Tcwvkd_dsfKMtM-42" value="ReplayDataStorage&lt;br&gt;" style="html=1;fontSize=15;" vertex="1" parent="1">
          <mxGeometry x="1385" y="1250" width="150" height="50" as="geometry" />
        </mxCell>
        <mxCell id="8tYOt1Tcwvkd_dsfKMtM-43" value="DefaultTimers&lt;br&gt;" style="html=1;fontSize=15;" vertex="1" parent="1">
          <mxGeometry x="776" y="380" width="110" height="50" as="geometry" />
        </mxCell>
        <mxCell id="8tYOt1Tcwvkd_dsfKMtM-44" value="SavedReplayImpl&lt;br&gt;" style="html=1;fontSize=15;" vertex="1" parent="1">
          <mxGeometry x="1179" y="1250" width="152" height="50" as="geometry" />
        </mxCell>
        <mxCell id="8tYOt1Tcwvkd_dsfKMtM-50" style="edgeStyle=none;rounded=0;orthogonalLoop=1;jettySize=auto;html=1;fontSize=15;" edge="1" parent="1" source="8tYOt1Tcwvkd_dsfKMtM-48" target="8tYOt1Tcwvkd_dsfKMtM-42">
          <mxGeometry relative="1" as="geometry" />
        </mxCell>
        <mxCell id="8tYOt1Tcwvkd_dsfKMtM-48" value="DirectoryConfiguration" style="html=1;fontSize=15;" vertex="1" parent="1">
          <mxGeometry x="1585" y="1250" width="160" height="50" as="geometry" />
        </mxCell>
      </root>
    </mxGraphModel>
  </diagram>
</mxfile>
